<?xml version="1.0" encoding="UTF-8"?>
<svg width="752pt" height="752pt" version="1.1" viewBox="0 0 752 752" xmlns="http://www.w3.org/2000/svg">
 <path d="m426.2 378.84 170.96-170.96c13.262-13.262 13.262-34.57 0-47.832-6.1562-6.1562-14.68-9.9453-23.68-9.9453-8.9961 0-17.523 3.3164-23.68 9.9453l-171.43 170.96-178.07-178.07c-6.1562-6.1562-14.68-9.9453-23.68-9.9453-8.9961 0-17.523 3.3164-23.68 9.9453-13.734 13.258-13.734 34.57-0.47266 47.832l178.07 178.07-170.96 170.96c-6.1562 6.1562-9.9453 14.68-9.9453 23.68 0 8.9961 3.3164 17.523 9.9453 23.68 6.1562 6.1562 14.68 9.9453 23.68 9.9453 8.9961 0 17.523-3.3164 23.68-9.9453l170.96-170.96 164.33 164.33c6.1562 6.1562 14.68 9.9453 23.68 9.9453 8.9961 0 17.523-3.3164 23.68-9.9453 6.1562-6.1562 9.9453-14.68 9.9453-23.68 0-8.9961-3.3164-17.523-9.9453-23.68z"/>
</svg>
