<?xml version="1.0" encoding="UTF-8"?>
<svg width="752pt" height="752pt" version="1.1" viewBox="0 0 752 752" xmlns="http://www.w3.org/2000/svg">
 <defs>
  <clipPath id="a">
   <path d="m139.21 173h473.58v406h-473.58z"/>
  </clipPath>
 </defs>
 <g clip-path="url(#a)">
  <path d="m443.66 511.31c18.684 0 33.828 15.148 33.828 33.828 0 17.348-13.059 31.645-29.883 33.602l-3.9453 0.22656h-270.62c-18.684 0-33.828-15.145-33.828-33.828 0-17.348 13.059-31.645 29.883-33.598l3.9453-0.23047zm135.31-169.13c18.684 0 33.828 15.145 33.828 33.824 0 17.348-13.059 31.648-29.883 33.602l-3.9453 0.22656h-405.93c-18.684 0-33.828-15.145-33.828-33.828 0-17.348 13.059-31.645 29.883-33.598l3.9453-0.22656zm0-169.14c18.684 0 33.828 15.145 33.828 33.828 0 17.348-13.059 31.645-29.883 33.598l-3.9453 0.22656h-405.93c-18.684 0-33.828-15.145-33.828-33.824 0-17.352 13.059-31.648 29.883-33.602l3.9453-0.22656z"/>
 </g>
</svg>
